<svg xmlns="http://www.w3.org/2000/svg" width="27" height="24" viewBox="0 0 27 24" fill="none">
  <path d="M27 24H0V6.94061H27V24ZM0.628217 23.3625H26.3718V7.57818H0.628217V23.3625Z" fill="#E5E5E5"/>
  <path d="M26.686 7.25876H0.314209V23.6806H26.686V7.25876Z" fill="white"/>
  <path d="M26.686 11.4208V10.4125H23.0276V7.25876H22.0341V10.4125H15.5211V7.25876H14.5276V10.4125H4.48201V7.25876H3.48849V10.4125H0.314209V11.4208H3.48849V15.342H0.314209V16.3503H3.48849V20.5515H0.314209V21.5598H8.84245V23.6806H9.83595V21.5598H14.5276V23.6806H15.5211V21.5598H26.686V20.5515H15.5211V16.3503H26.686V15.342H23.0276V11.4208L26.686 11.4208ZM14.5276 11.4208V12.6532H4.48201V11.4208H14.5276ZM4.48201 13.6615H14.5276V15.342H4.48201V13.6615ZM4.48201 20.5515V16.3503H8.84245V20.5515L4.48201 20.5515ZM14.5276 20.5515H9.83595V16.3503H14.5276V20.5515ZM22.0341 15.342H15.5211V11.4208H22.0341V15.342Z" fill="#DADADA"/>
  <path d="M19.8172 4.83483C19.8172 7.50503 15.0532 13.4534 15.0532 13.4534C15.0532 13.4534 10.2893 7.50503 10.2893 4.83483C10.2893 3.55255 10.7912 2.3228 11.6846 1.41609C12.578 0.509382 13.7898 0 15.0532 0C16.3167 0 17.5285 0.509382 18.4219 1.41609C19.3153 2.3228 19.8172 3.55255 19.8172 4.83483Z" fill="#008CBA"/>
  <path d="M17.2311 4.62452C17.2311 5.06165 17.1034 5.48898 16.8641 5.85244C16.6248 6.21591 16.2846 6.4992 15.8867 6.66648C15.4888 6.83377 15.0509 6.87754 14.6284 6.79226C14.206 6.70698 13.8179 6.49647 13.5134 6.18737C13.2088 5.87827 13.0014 5.48445 12.9173 5.05571C12.8333 4.62697 12.8764 4.18257 13.0413 3.77871C13.2061 3.37484 13.4852 3.02966 13.8434 2.78679C14.2015 2.54393 14.6226 2.41431 15.0533 2.41431C15.3393 2.41417 15.6226 2.47125 15.8869 2.58228C16.1511 2.6933 16.3913 2.8561 16.5935 3.06137C16.7958 3.26663 16.9562 3.51033 17.0656 3.77855C17.175 4.04676 17.2312 4.33423 17.2311 4.62452Z" fill="white"/>
  <path d="M15.0532 16.9428C15.7625 16.9428 16.3374 16.3592 16.3374 15.6395C16.3374 14.9197 15.7625 14.3362 15.0532 14.3362C14.344 14.3362 13.769 14.9197 13.769 15.6395C13.769 16.3592 14.344 16.9428 15.0532 16.9428Z" fill="#008CBA"/>
</svg>